<svg xmlns="http://www.w3.org/2000/svg" viewBox="0 0 1325.08 278.37"><defs><style>.cls-1{opacity:0.8;}</style></defs><title>logo资源 6</title><g id="图层_2" data-name="图层 2"><g id="图层_1-2" data-name="图层 1"><path d="M1009.34,202.52a58.14,58.14,0,1,1,58.13-58.14A58.21,58.21,0,0,1,1009.34,202.52Zm0-99.74a41.61,41.61,0,1,0,41.6,41.6A41.65,41.65,0,0,0,1009.34,102.78Z"/><path d="M1009.34,90.56a53.83,53.83,0,1,0,53.82,53.82A53.88,53.88,0,0,0,1009.34,90.56Zm0,99.74a45.92,45.92,0,1,1,45.91-45.92A46,46,0,0,1,1009.34,190.3Z"/><path d="M1229.18,208.28c-32.26,0-58.5-28.42-58.5-63.35s26.24-63.36,58.5-63.36,58.5,28.42,58.5,63.36S1261.44,208.28,1229.18,208.28Zm0-108.69c-23.08,0-41.86,20.34-41.86,45.34s18.78,45.34,41.86,45.34,41.87-20.34,41.87-45.34S1252.27,99.59,1229.18,99.59Z"/><rect x="1274.37" y="85.65" width="17.05" height="122.63"/><path d="M865.5,208.28c-32.25,0-58.49-28.42-58.49-63.35s26.24-63.36,58.49-63.36S924,110,924,144.93,897.76,208.28,865.5,208.28Zm0-108.69c-23.08,0-41.86,20.34-41.86,45.34s18.78,45.34,41.86,45.34,41.87-20.34,41.87-45.34S888.59,99.59,865.5,99.59Z"/><rect x="910.69" y="85.65" width="17.05" height="123.54"/><path d="M914.85,204.82h8.74V90h-8.74Z"/><rect x="945.29" y="85.65" width="18.41" height="157.68"/><path d="M949.35,239.27h10.3V89.72h-10.3Z"/><polygon class="cls-1" points="143.66 59.37 147.33 92.25 93.82 209.42 72.21 209.36 143.66 59.37"/><polygon class="cls-1" points="98.41 73.5 106.5 95.59 59.05 200.18 37.93 200.18 98.41 73.5"/><polygon points="164.22 117.06 154.73 136.84 188.37 208.97 208.23 209.42 164.22 117.06"/><path d="M257.49,278.37h-3c-14.13,0-27.51-.23-44.43-.46-16.09-.21-31.29-.41-43-.41H89.87c-27.59,0-39.8-2.81-59.43-22.44S0,213.55,0,186V0H167.13c27.59,0,40,5.59,59.75,22.53C248,40.6,257.32,62.69,257.32,90.28V186c0,13.14,0,30.37.09,47,0,16.14.08,28.71.08,41ZM10.86,11.27V186a79.09,79.09,0,0,0,79,79h77.26c11.83,0,27.11.2,43.29.42,12.17.16,24.63.32,35.88.4,0-10.07,0-21.53-.07-32.73,0-16.68-.09-33.93-.09-47.1V90.28a79.09,79.09,0,0,0-79-79Z"/><path d="M1166.63,192.84l3.21,14a85.93,85.93,0,0,1-16.79,1.89c-8.06,0-9.68.33-14.12-2.1a20.81,20.81,0,0,1-9.38-9.57q-2.71-5.94-2.71-25V100.34h-20.95v-13h20.95V53l17.44-12.69v47h22.35v13h-22.35v73c0,6,.4,13,1.18,14.72a8.93,8.93,0,0,0,3.82,4.12c1.77,1,4.31,1.53,7.6,1.53A75.7,75.7,0,0,0,1166.63,192.84Z"/><path d="M1307.81,208.28V36.05h17.27V208.28Z"/><rect x="1077.89" y="41.41" width="14.93" height="18.58"/><rect x="1077.89" y="80" width="14.93" height="128.78"/><path d="M581.53,179.53c-14,13-29.31,19.53-45.62,19.53-36.24,0-60.59-23.95-60.59-59.58,0-36,24.41-60.17,60.75-60.17,14.85,0,27.9,5.78,41.08,18.19l1.67,1.57,10.27-12.15-1.45-1.41c-9.66-9.42-25.55-21.94-51.81-21.94-46.14,0-78.37,31.21-78.37,75.91,0,22.82,7.71,42,22.31,55.52,14,12.95,33.25,19.8,55.66,19.8,20.65,0,39.42-7.79,55.81-23.15l1.42-1.34-9.37-12.41Z"/><path d="M793.79,177.9,792,179.53c-14,13-29.31,19.53-45.62,19.53-36.25,0-60.6-23.95-60.6-59.58,0-36,24.42-60.17,60.76-60.17,14.85,0,27.9,5.78,41.08,18.19l1.66,1.57,10.28-12.15-1.45-1.41c-9.67-9.42-25.55-21.94-51.81-21.94-46.14,0-78.37,31.21-78.37,75.91,0,22.82,7.71,42,22.31,55.52,14,12.95,33.25,19.8,55.66,19.8,20.65,0,39.42-7.79,55.81-23.15l1.42-1.34Z"/><polygon points="448.26 220.9 464.19 220.9 404.2 96.05 396.12 112.39 448.26 220.9"/><polygon points="307.9 185.09 382.16 185.09 375.08 171.32 316.25 171.32 307.9 185.09"/><polygon points="355.02 165.54 400.16 73.81 392.07 57.47 339.02 165.54 355.02 165.54"/><polygon points="336.19 171.32 311.85 220.9 327.77 220.9 352.17 171.32 336.19 171.32"/></g></g></svg>