<?xml version="1.0" encoding="UTF-8"?>
<svg width="20px" height="16px" viewBox="0 0 20 16" version="1.1" xmlns="http://www.w3.org/2000/svg" xmlns:xlink="http://www.w3.org/1999/xlink">
    <!-- Generator: Sketch 52.6 (67491) - http://www.bohemiancoding.com/sketch -->
    <title>Combined Shape</title>
    <desc>Created with Sketch.</desc>
    <g id="Page-1" stroke="none" stroke-width="1" fill="none" fill-rule="evenodd" opacity="0.600000024">
        <g id="Artboard-Copy-16" transform="translate(-108.000000, -484.000000)" fill="#FFFFFF">
            <path d="M126.214145,500 L109.785782,500 C109.33625,500 108.94645,499.848862 108.615329,499.55043 L114.282737,493.779333 C114.424496,493.882963 114.555615,493.979791 114.673844,494.068041 C115.098104,494.386178 115.442079,494.634366 115.706315,494.812235 C115.970297,494.99051 116.321862,495.172224 116.760973,495.357745 C117.200084,495.543526 117.609201,495.636065 117.988762,495.636065 L117.999873,495.636065 L118.010984,495.636065 C118.390508,495.636065 118.799626,495.543489 119.238773,495.357745 C119.67763,495.172224 120.029194,494.99051 120.29343,494.812235 C120.557703,494.634366 120.90186,494.386141 121.325902,494.068041 C121.450376,493.976389 121.582149,493.880005 121.718098,493.780885 L127.384417,499.55043 C127.053259,499.848862 126.663713,500 126.214145,500 Z M109.127352,490.147797 C110.707795,491.241332 111.995134,492.141655 112.994272,492.851872 L108,497.936932 L108,489.159039 C108.327345,489.530341 108.703347,489.859976 109.127352,490.147797 Z M126.88394,490.147797 C127.307946,489.852286 127.679917,489.522872 128,489.159039 L128,497.937154 L123.007725,492.853906 C124.071751,492.09729 125.363774,491.195414 126.88394,490.147797 Z M126.214145,484 C126.697773,484 127.116404,484.178053 127.46993,484.533975 C127.823056,484.890341 128,485.318209 128,485.818245 C128,486.416735 127.8175,486.988717 127.453481,487.534005 C127.088808,488.079294 126.635064,488.54539 126.091958,488.931629 C124.286132,490.207764 122.923447,491.171198 121.998166,491.825773 C121.489665,492.185281 121.111448,492.45299 120.868744,492.624943 C120.83276,492.650712 120.77655,492.691417 120.701858,492.745987 C120.621429,492.804586 120.519649,492.879268 120.394339,492.971585 C120.152507,493.149676 119.951634,493.293568 119.791647,493.40352 C119.631369,493.513251 119.438049,493.636365 119.211177,493.772789 C118.984087,493.90925 118.77025,494.011475 118.569413,494.079613 C118.368467,494.147714 118.182445,494.181875 118.011384,494.181875 L118.000272,494.181875 L117.989161,494.181875 C117.818063,494.181875 117.632077,494.147714 117.431168,494.079613 C117.230294,494.011475 117.016276,493.909028 116.789368,493.772789 C116.562278,493.636365 116.368703,493.51351 116.208934,493.40352 C116.048947,493.293568 115.848074,493.149639 115.606278,492.971585 C115.480714,492.879268 115.378934,492.804623 115.298505,492.745802 C115.223849,492.691454 115.167603,492.65049 115.131837,492.624943 C114.820287,492.401859 114.442942,492.133041 114.005392,491.822631 C113.492061,491.458094 112.894707,491.035661 112.207809,490.551005 C110.935357,489.653418 110.172678,489.113564 109.919771,488.931629 C109.458437,488.613491 109.023103,488.176122 108.613985,487.619298 C108.204868,487.062253 108.000218,486.54521 108.000218,486.068022 C108.000218,485.477259 108.154431,484.984655 108.463367,484.590763 C108.772048,484.197057 109.212683,484 109.785819,484 L126.214145,484 Z" id="Combined-Shape"></path>
        </g>
    </g>
</svg>